<svg width="24" height="24" viewBox="0 0 24 24" fill="none" xmlns="http://www.w3.org/2000/svg">
<g clip-path="url(#clip0_15_57)">
<path d="M13 12.8065C11.8542 12.8065 10.8802 12.467 10.0781 11.7878C9.27604 11.1087 8.875 10.284 8.875 9.31384C8.875 8.34365 9.27604 7.51899 10.0781 6.83985C10.8802 6.16072 11.8542 5.82115 13 5.82115C14.1458 5.82115 15.1198 6.16072 15.9219 6.83985C16.724 7.51899 17.125 8.34365 17.125 9.31384C17.125 10.284 16.724 11.1087 15.9219 11.7878C15.1198 12.467 14.1458 12.8065 13 12.8065ZM13 22.1204L6.57188 23.9249C6.11354 24.0608 5.69531 24.0123 5.31719 23.7794C4.93906 23.5466 4.75 23.2361 4.75 22.848V15.4552C3.87917 14.6402 3.20313 13.7088 2.72188 12.661C2.24063 11.6132 2 10.4975 2 9.31384C2 6.71373 3.06562 4.51139 5.19688 2.70684C7.32813 0.902279 9.92917 0 13 0C16.0708 0 18.6719 0.902279 20.8031 2.70684C22.9344 4.51139 24 6.71373 24 9.31384C24 10.4975 23.7594 11.6132 23.2781 12.661C22.7969 13.7088 22.1208 14.6402 21.25 15.4552V22.848C21.25 23.2361 21.0609 23.5466 20.6828 23.7794C20.3047 24.0123 19.8865 24.0608 19.4281 23.9249L13 22.1204ZM13 16.2992C15.2917 16.2992 17.2396 15.6201 18.8438 14.2618C20.4479 12.9036 21.25 11.2542 21.25 9.31384C21.25 7.37346 20.4479 5.72413 18.8438 4.36586C17.2396 3.0076 15.2917 2.32846 13 2.32846C10.7083 2.32846 8.76042 3.0076 7.15625 4.36586C5.55208 5.72413 4.75 7.37346 4.75 9.31384C4.75 11.2542 5.55208 12.9036 7.15625 14.2618C8.76042 15.6201 10.7083 16.2992 13 16.2992ZM7.5 20.9853L13 19.7919L18.5 20.9853V17.3761C17.6979 17.7642 16.8328 18.0698 15.9047 18.293C14.9766 18.5161 14.0083 18.6277 13 18.6277C11.9917 18.6277 11.0234 18.5161 10.0953 18.293C9.16719 18.0698 8.30208 17.7642 7.5 17.3761V20.9853Z" fill="url(#paint0_linear_15_57)"/>
</g>
<defs>
<linearGradient id="paint0_linear_15_57" x1="13" y1="0" x2="13" y2="24" gradientUnits="userSpaceOnUse">
<stop stop-color="#C65757"/>
<stop offset="1" stop-color="#970000"/>
</linearGradient>
<clipPath id="clip0_15_57">
<rect width="24" height="24" fill="white"/>
</clipPath>
</defs>
</svg>
