<svg width="335" height="46" viewBox="0 0 335 46" fill="none" xmlns="http://www.w3.org/2000/svg">
<path d="M22.864 30.912L0.4 21.36V16.992L22.864 7.44V11.568L4.96 19.2L22.864 26.736V30.912ZM28.7853 36V31.92H43.3293C44.4493 31.92 45.4093 31.664 46.2093 31.152C47.0093 30.608 47.6333 29.92 48.0813 29.088C48.5293 28.256 48.7533 27.376 48.7533 26.448C48.7533 25.488 48.5293 24.608 48.0813 23.808C47.6653 22.976 47.0573 22.32 46.2573 21.84C45.4893 21.328 44.5453 21.072 43.4253 21.072H37.0893C35.2013 21.072 33.5373 20.688 32.0973 19.92C30.6573 19.12 29.5213 18.032 28.6893 16.656C27.8893 15.248 27.4893 13.664 27.4893 11.904C27.4893 10.112 27.8733 8.496 28.6413 7.056C29.4413 5.616 30.5453 4.48 31.9533 3.648C33.3933 2.816 35.0413 2.4 36.8973 2.4H51.1533V6.48H37.3293C36.2733 6.48 35.3453 6.736 34.5453 7.248C33.7453 7.728 33.1373 8.368 32.7213 9.168C32.3053 9.936 32.0973 10.768 32.0973 11.664C32.0973 12.528 32.2893 13.36 32.6733 14.16C33.0893 14.928 33.6813 15.552 34.4493 16.032C35.2493 16.512 36.1613 16.752 37.1853 16.752H43.6653C45.6813 16.752 47.4093 17.152 48.8493 17.952C50.2893 18.752 51.3933 19.84 52.1613 21.216C52.9293 22.592 53.3133 24.16 53.3133 25.92C53.3133 27.872 52.9133 29.616 52.1133 31.152C51.3453 32.656 50.2413 33.84 48.8013 34.704C47.3613 35.568 45.7133 36 43.8573 36H28.7853ZM70.351 36.576C68.143 36.576 66.159 36.128 64.399 35.232C62.671 34.304 61.311 33.024 60.319 31.392C59.359 29.76 58.879 27.856 58.879 25.68V11.52H63.343V25.632C63.343 27.104 63.663 28.384 64.303 29.472C64.943 30.528 65.791 31.344 66.847 31.92C67.935 32.496 69.087 32.784 70.303 32.784C71.551 32.784 72.703 32.496 73.759 31.92C74.847 31.344 75.711 30.528 76.351 29.472C77.023 28.384 77.359 27.104 77.359 25.632V11.52H81.823V25.68C81.823 27.856 81.327 29.76 80.335 31.392C79.343 33.024 77.983 34.304 76.255 35.232C74.527 36.128 72.559 36.576 70.351 36.576ZM92.5281 45.744V41.952H104.528C105.712 41.952 106.624 41.6 107.264 40.896C107.936 40.192 108.272 39.264 108.272 38.112V31.392H108.176C107.568 32.32 106.832 33.152 105.968 33.888C105.104 34.624 104.112 35.216 102.992 35.664C101.872 36.08 100.608 36.288 99.2001 36.288C96.8961 36.288 94.8641 35.76 93.1041 34.704C91.3441 33.616 89.9681 32.128 88.9761 30.24C87.9841 28.32 87.4881 26.128 87.4881 23.664C87.4881 21.264 87.9841 19.104 88.9761 17.184C89.9681 15.264 91.3921 13.744 93.2481 12.624C95.1361 11.504 97.4081 10.944 100.064 10.944C102.624 10.944 104.848 11.488 106.736 12.576C108.624 13.664 110.08 15.184 111.104 17.136C112.16 19.056 112.688 21.312 112.688 23.904V38.4C112.688 40.64 112.032 42.416 110.72 43.728C109.408 45.072 107.616 45.744 105.344 45.744H92.5281ZM100.016 32.496C101.648 32.496 103.072 32.112 104.288 31.344C105.536 30.576 106.496 29.536 107.168 28.224C107.872 26.88 108.224 25.376 108.224 23.712C108.224 22.016 107.888 20.496 107.216 19.152C106.544 17.808 105.6 16.752 104.384 15.984C103.168 15.184 101.712 14.784 100.016 14.784C98.3521 14.784 96.9121 15.184 95.6961 15.984C94.5121 16.752 93.5841 17.824 92.9121 19.2C92.2721 20.544 91.9521 22.064 91.9521 23.76C91.9521 25.36 92.2721 26.832 92.9121 28.176C93.5841 29.488 94.5121 30.544 95.6961 31.344C96.9121 32.112 98.3521 32.496 100.016 32.496ZM119.535 36V11.52H123.999V36H119.535ZM121.791 7.632C120.991 7.632 120.287 7.344 119.679 6.768C119.103 6.16 118.815 5.456 118.815 4.656C118.815 3.856 119.103 3.168 119.679 2.592C120.287 1.984 120.991 1.68 121.791 1.68C122.591 1.68 123.279 1.984 123.855 2.592C124.463 3.168 124.767 3.856 124.767 4.656C124.767 5.456 124.463 6.16 123.855 6.768C123.279 7.344 122.591 7.632 121.791 7.632ZM140.237 45.744V36.384C138.445 36.128 136.845 35.536 135.437 34.608C134.061 33.648 132.973 32.416 132.173 30.912C131.373 29.376 130.973 27.632 130.973 25.68V11.52H135.437V25.632C135.437 27.104 135.757 28.384 136.397 29.472C137.037 30.528 137.885 31.344 138.941 31.92C140.029 32.496 141.181 32.784 142.397 32.784C143.645 32.784 144.797 32.496 145.853 31.92C146.941 31.344 147.805 30.528 148.445 29.472C149.117 28.384 149.453 27.104 149.453 25.632V11.52H153.869V25.68C153.869 27.632 153.469 29.36 152.669 30.864C151.901 32.368 150.813 33.6 149.405 34.56C148.029 35.488 146.445 36.096 144.653 36.384V45.744H140.237ZM171.055 36.576C168.687 36.576 166.639 36.016 164.911 34.896C163.183 33.744 161.855 32.192 160.927 30.24C159.999 28.288 159.535 26.128 159.535 23.76C159.535 21.36 160.047 19.2 161.071 17.28C162.095 15.328 163.567 13.792 165.487 12.672C167.407 11.52 169.711 10.944 172.399 10.944C174.991 10.944 177.215 11.504 179.071 12.624C180.927 13.744 182.351 15.264 183.343 17.184C184.367 19.104 184.879 21.248 184.879 23.616V36H180.415V31.008H180.319C179.839 31.936 179.183 32.832 178.351 33.696C177.551 34.528 176.543 35.216 175.327 35.76C174.111 36.304 172.687 36.576 171.055 36.576ZM172.207 32.784C173.807 32.784 175.215 32.4 176.431 31.632C177.679 30.832 178.639 29.744 179.311 28.368C180.015 26.96 180.367 25.392 180.367 23.664C180.367 21.968 180.031 20.448 179.359 19.104C178.719 17.76 177.791 16.704 176.575 15.936C175.359 15.136 173.935 14.736 172.303 14.736C170.575 14.736 169.087 15.136 167.839 15.936C166.623 16.736 165.679 17.824 165.007 19.2C164.367 20.544 164.047 22.08 164.047 23.808C164.047 25.472 164.367 26.992 165.007 28.368C165.647 29.712 166.575 30.784 167.791 31.584C169.007 32.384 170.479 32.784 172.207 32.784ZM191.91 36V21.264C191.91 19.376 192.342 17.648 193.206 16.08C194.07 14.512 195.318 13.264 196.95 12.336C198.582 11.408 200.55 10.944 202.854 10.944C203.974 10.944 205.094 11.104 206.214 11.424C207.334 11.712 208.374 12.224 209.334 12.96C210.294 13.664 211.062 14.624 211.638 15.84H211.686C212.326 14.624 213.126 13.664 214.086 12.96C215.046 12.224 216.086 11.712 217.206 11.424C218.326 11.104 219.462 10.944 220.614 10.944C222.886 10.944 224.838 11.408 226.47 12.336C228.102 13.264 229.35 14.512 230.214 16.08C231.078 17.648 231.51 19.376 231.51 21.264V36H227.094V21.264C227.094 20.048 226.806 18.944 226.23 17.952C225.654 16.96 224.87 16.176 223.878 15.6C222.918 15.024 221.814 14.736 220.566 14.736C219.35 14.736 218.23 15.04 217.206 15.648C216.182 16.224 215.366 17.008 214.758 18C214.182 18.96 213.894 20.048 213.894 21.264V36H209.478V21.264C209.478 20.048 209.174 18.96 208.566 18C207.99 17.008 207.19 16.224 206.166 15.648C205.174 15.04 204.054 14.736 202.806 14.736C201.59 14.736 200.486 15.024 199.494 15.6C198.534 16.176 197.766 16.96 197.19 17.952C196.614 18.944 196.326 20.048 196.326 21.264V36H191.91ZM248.68 36.576C246.312 36.576 244.264 36.016 242.536 34.896C240.808 33.744 239.48 32.192 238.552 30.24C237.624 28.288 237.16 26.128 237.16 23.76C237.16 21.36 237.672 19.2 238.696 17.28C239.72 15.328 241.192 13.792 243.112 12.672C245.032 11.52 247.336 10.944 250.024 10.944C252.616 10.944 254.84 11.504 256.696 12.624C258.552 13.744 259.976 15.264 260.968 17.184C261.992 19.104 262.504 21.248 262.504 23.616V36H258.04V31.008H257.944C257.464 31.936 256.808 32.832 255.976 33.696C255.176 34.528 254.168 35.216 252.952 35.76C251.736 36.304 250.312 36.576 248.68 36.576ZM249.832 32.784C251.432 32.784 252.84 32.4 254.056 31.632C255.304 30.832 256.264 29.744 256.936 28.368C257.64 26.96 257.992 25.392 257.992 23.664C257.992 21.968 257.656 20.448 256.984 19.104C256.344 17.76 255.416 16.704 254.2 15.936C252.984 15.136 251.56 14.736 249.928 14.736C248.2 14.736 246.712 15.136 245.464 15.936C244.248 16.736 243.304 17.824 242.632 19.2C241.992 20.544 241.672 22.08 241.672 23.808C241.672 25.472 241.992 26.992 242.632 28.368C243.272 29.712 244.2 30.784 245.416 31.584C246.632 32.384 248.104 32.784 249.832 32.784ZM264.783 40.8L279.519 0.959999H283.743L269.007 40.8H264.783ZM286.103 30.912V26.736L304.007 19.2L286.103 11.568V7.44L308.567 16.992V21.36L286.103 30.912ZM310.984 40.752V37.536H334.984V40.752H310.984Z" fill="#141414"/>
</svg>
